<?xml version="1.0" encoding="utf-8"?>
<!-- Generator: Adobe Illustrator 23.0.5, SVG Export Plug-In . SVG Version: 6.00 Build 0)  -->
<svg version="1.1" id="Calque_1" xmlns="http://www.w3.org/2000/svg" xmlns:xlink="http://www.w3.org/1999/xlink" x="0px" y="0px"
	 width="109px" height="112px" viewBox="0 0 109 112" style="enable-background:new 0 0 109 112;" xml:space="preserve">
<style type="text/css">
	.st0{fill:#E20613;}
	.st1{fill:#FFFFFF;}
</style>
<g>
	<path class="st0" d="M14.2,108.29c-0.99,0-1.98-0.26-2.87-0.77c-1.78-1.03-2.87-2.92-2.87-4.98V9.46c0-2.05,1.1-3.95,2.87-4.97
		c0.89-0.51,1.88-0.77,2.87-0.77c0.99,0,1.98,0.26,2.87,0.77l80.61,46.54c1.78,1.03,2.88,2.92,2.88,4.98c0,2.05-1.1,3.95-2.88,4.97
		l-80.61,46.54C16.18,108.03,15.19,108.29,14.2,108.29"/>
	<path class="st1" d="M15.83,63.54h4.89c4.51,0,6.39-2.59,6.39-6.3v-1.98c0-3.78-2.13-5.99-6.56-5.99h-4.72V63.54z M18.29,61.48
		V51.32h2.26c2.66,0,4.05,1.31,4.05,4.05v1.73c0,2.83-1.2,4.37-3.88,4.37H18.29z"/>
	<path class="st1" d="M28.84,63.54h2.04c2.8,0,4.43-1.64,4.43-4.4v-9.87h-5.88v2.05h3.44v7.82c0,1.53-0.7,2.34-2.11,2.34h-1.92
		V63.54z"/>
	<path class="st1" d="M42.35,63.54h4.95v-2.06h-4.49c-1.2,0-1.73-0.58-1.73-1.96v-2.35h5.5v-2.08h-5.5v-3.77h6.1v-2.05h-8.56v10.41
		C38.62,62.22,39.88,63.54,42.35,63.54"/>
	<path class="st1" d="M49.3,63.54h10.22v-2.06h-6.83c1.95-2.57,5.58-8.29,6.74-11.07v-1.14h-9.8v2.05h6.64
		c-1.18,2.84-4.95,8.39-6.96,10.96V63.54z"/>
	<path class="st1" d="M61.09,63.54h10.22v-2.06h-6.83c1.94-2.57,5.57-8.29,6.73-11.07v-1.14h-9.8v2.05h6.64
		c-1.18,2.84-4.95,8.39-6.96,10.96V63.54z"/>
	<polygon class="st1" points="76.98,63.54 79.41,63.54 79.41,57.84 84.08,49.42 84.08,49.27 81.72,49.27 78.29,55.81 74.94,49.27 
		72.42,49.27 72.42,49.42 76.98,57.93 	"/>
	<rect x="18.84" y="80.94" class="st1" width="1.67" height="1.69"/>
	<rect x="21.71" y="80.94" class="st1" width="1.67" height="1.69"/>
	<path class="st1" d="M31.37,72.63v3.19c0,2.73-1.2,3.87-3.81,3.87v-1.46c1.42,0,2.12-0.7,2.12-2.15v-3.45H31.37z M31.35,71.23
		h-1.67v-1.69h1.67V71.23z"/>
	<path class="st1" d="M37.41,77.16h-1.99c-0.82,0-1.44-0.26-1.88-0.79c-0.41-0.49-0.61-1.14-0.61-1.98v-4.67h1.69v3.99
		c0,0.74,0.16,1.23,0.48,1.45c0.23,0.17,0.66,0.26,1.3,0.26h1V77.16z"/>
	<path class="st1" d="M47.48,76.1v1.06h-10.7v-1.73h8.86c0-0.94-0.26-1.74-0.79-2.41c-0.62-0.77-1.5-1.15-2.61-1.15
		c-0.38,0-0.8,0.09-1.27,0.29c-0.55,0.23-1,0.55-1.37,0.96c-0.17-0.32-0.44-0.76-0.82-1.34c0.47-0.44,1.01-0.8,1.63-1.07
		c0.66-0.29,1.34-0.43,2-0.43c1.12,0,2.09,0.27,2.92,0.83C46.76,72.06,47.48,73.72,47.48,76.1 M43.21,80.09h-1.67v-1.7h1.67V80.09z"
		/>
	<path class="st1" d="M26.26,75.9v-1.62h-3.75c0.29-0.68,0.71-1.17,1.25-1.43c0.44-0.22,1.08-0.32,1.91-0.32v-1.57
		c-3.27,0-5.12,1.76-5.12,4.98h4.01h1.7V75.9z"/>
	<path class="st1" d="M24.77,74.28c-0.18,2.36-1.42,3.78-3.62,3.78c-1.14,0-2.04-0.34-2.66-1.06c-0.61-0.67-0.91-1.57-0.91-2.69
		v-1.5h-1.71v1.68c0,1.47,0.5,2.72,1.5,3.71c1.01,0.98,2.25,1.49,3.72,1.49h0.11c1.47,0,2.7-0.5,3.7-1.49
		c0.66-0.64,1.1-1.38,1.33-2.22c0.09-0.32,0.25-1.04,0.26-1.71L24.77,74.28z"/>
</g>
</svg>
